<?xml version="1.0" encoding="utf-8"?>

<!DOCTYPE svg PUBLIC "-//W3C//DTD SVG 1.1//EN" "http://www.w3.org/Graphics/SVG/1.1/DTD/svg11.dtd">
<svg version="1.1" id="Layer_1" xmlns="http://www.w3.org/2000/svg" xmlns:xlink="http://www.w3.org/1999/xlink" x="0px" y="0px"
	 width="268.584px" height="19.675px" enable-background="new 0 0 268.584 19.675"
	 xml:space="preserve">
	 
<g>
	<path fill="#FFFFFF" d="M5.649,19.326V3.622H0V0h15.415v3.622H9.794v15.704H5.649z"/>
	<path fill="#FFFFFF" d="M36.247,19.326l-1.217-3.273h-8.287l-1.218,3.273H20.86L28.308,0h5.158l7.446,19.326H36.247z M30.886,4.114l-3.013,8.315
		h6.026L30.886,4.114z"/>
	<path fill="#FFFFFF" d="M47.197,17.762l1.797-3.129c0.753,0.725,1.738,1.391,3.071,1.391c1.825,0,3.014-1.246,3.014-3.101V0h4.143v12.98
		c0,4.55-2.867,6.694-6.809,6.694C50.442,19.675,48.589,19.124,47.197,17.762z"/>
	<path fill="#FFFFFF" d="M66.841,19.326V0h7.621C80.519,0,84.72,3.854,84.72,9.648c0,5.854-4.201,9.678-10.229,9.678H66.841z M80.519,9.648
		c0-3.391-2.086-6.026-6.027-6.026h-3.535v12.083h3.506C78.287,15.705,80.519,12.952,80.519,9.648z"/>
	<path fill="#FFFFFF" d="M92.367,19.326V0h4.114v19.326H92.367z"/>
	<path fill="#FFFFFF" d="M104.42,19.326V0h7.62c6.057,0,10.258,3.854,10.258,9.648c0,5.854-4.201,9.678-10.229,9.678H104.42z M118.097,9.648
		c0-3.391-2.087-6.026-6.027-6.026h-3.535v12.083h3.506C115.865,15.705,118.097,12.952,118.097,9.648z"/>
	<path fill="#FFFFFF" d="M142.839,19.326l-5.418-7.996h-4.26v7.996h-1.651V0h7.216c3.332,0,5.881,2.115,5.881,5.65c0,3.506-2.463,5.447-5.359,5.563
		l5.592,8.113H142.839z M142.868,5.65c0-2.435-1.709-4.145-4.288-4.145h-5.419v8.316h5.419
		C141.159,9.822,142.868,8.084,142.868,5.65z"/>
	<path fill="#FFFFFF" d="M168.192,19.326l-1.913-4.752h-10.229l-1.913,4.752h-1.912L160.137,0h2.058l7.91,19.326H168.192z M161.18,1.768
		l-4.578,11.301h9.127L161.18,1.768z"/>
	<path fill="#FFFFFF" d="M191.979,19.326v-9.186h-12.257v9.186h-1.652V0h1.652v8.635h12.257V0h1.651v19.326H191.979z"/>
	<path fill="#FFFFFF" d="M218.112,19.326V2.086l-7.041,17.24h-0.637l-7.07-17.24v17.24h-1.652V0h2.463l6.578,16.081L217.302,0h2.492v19.326H218.112
		z"/>
	<path fill="#FFFFFF" d="M243.522,19.326l-1.913-4.752h-10.228l-1.913,4.752h-1.912L235.468,0h2.057l7.91,19.326H243.522z M236.511,1.768
		l-4.578,11.301h9.127L236.511,1.768z"/>
	<path fill="#FFFFFF" d="M266.962,19.326l-12.17-16.604v16.604h-1.652V0h1.682l12.111,16.371V0h1.651v19.326H266.962z"/>
</g>
</svg>
